<?xml version="1.0" encoding="UTF-8"?>
<svg xmlns="http://www.w3.org/2000/svg" xmlns:xlink="http://www.w3.org/1999/xlink" width="50px" height="50px" viewBox="0 0 50 50" version="1.1">
<g id="surface1">
<path style=" stroke:none;fill-rule:nonzero;fill:rgb(45.098039%,30.980392%,58.823529%);fill-opacity:1;" d="M 11.59375 3.65625 L 38.421875 3.65625 C 42.804688 3.65625 46.359375 7.210938 46.359375 11.59375 L 46.359375 38.421875 C 46.359375 42.804688 42.804688 46.359375 38.421875 46.359375 L 11.59375 46.359375 C 7.210938 46.359375 3.65625 42.804688 3.65625 38.421875 L 3.65625 11.59375 C 3.65625 7.210938 7.210938 3.65625 11.59375 3.65625 Z M 11.59375 3.65625 "/>
<path style=" stroke:none;fill-rule:nonzero;fill:rgb(100%,100%,100%);fill-opacity:1;" d="M 9.46875 39.84375 C 9.46875 38.140625 9.46875 37.984375 9.625 37.984375 L 11.578125 37.890625 C 13.140625 37.890625 13.421875 37.796875 13.796875 37.59375 C 14.066406 37.484375 14.28125 37.277344 14.40625 37.015625 C 14.59375 36.65625 14.59375 36.5625 14.59375 24.953125 C 14.59375 14.015625 14.59375 13.234375 14.4375 12.96875 C 14.226562 12.589844 13.871094 12.308594 13.453125 12.1875 C 12.738281 12.085938 12.019531 12.035156 11.296875 12.03125 L 9.46875 12.03125 L 9.46875 8.3125 L 40.53125 8.3125 L 40.53125 22.09375 L 38.890625 22.09375 C 38.265625 22.113281 37.636719 22.085938 37.015625 22.015625 C 36.796875 22.015625 36.78125 21.9375 36.671875 20.53125 C 36.613281 19.25 36.429688 17.980469 36.125 16.734375 C 35.875 14.523438 34.207031 12.738281 32.015625 12.34375 C 31.125 12.1875 27.171875 12.03125 23.90625 12.03125 L 21.671875 12.03125 L 21.671875 22.390625 L 22.84375 22.390625 C 23.839844 22.367188 24.824219 22.191406 25.765625 21.875 C 26.378906 21.578125 26.871094 21.074219 27.15625 20.453125 C 27.5 19.578125 27.703125 18.65625 27.765625 17.71875 C 27.765625 17.203125 27.890625 16.6875 27.921875 16.578125 C 27.953125 16.46875 27.921875 16.375 29.765625 16.375 L 31.5625 16.375 L 31.5625 32.90625 L 27.890625 32.90625 L 27.890625 31.953125 C 27.851562 30.527344 27.566406 29.121094 27.046875 27.796875 C 26.484375 26.734375 25.40625 26.234375 23.21875 26.109375 L 22.03125 26 L 21.71875 26 L 21.71875 31.21875 C 21.71875 36.703125 21.71875 36.921875 22.1875 37.375 C 22.65625 37.828125 22.859375 37.875 27.21875 38.03125 C 27.296875 38.03125 27.328125 38.46875 27.328125 39.890625 L 27.328125 41.734375 L 9.46875 41.734375 Z M 9.46875 39.84375 "/>
</g>
</svg>
