<?xml version="1.0" encoding="UTF-8"?>
<svg xmlns="http://www.w3.org/2000/svg" xmlns:xlink="http://www.w3.org/1999/xlink" width="50px" height="50px" viewBox="0 0 50 50" version="1.1">
<g id="surface1">
<path style=" stroke:none;fill-rule:nonzero;fill:rgb(93.333333%,31.764706%,23.137255%);fill-opacity:1;" d="M 4.039062 27.207031 C 2.820312 25.988281 2.820312 24.011719 4.039062 22.792969 L 22.792969 4.039062 C 24.011719 2.820312 25.988281 2.820312 27.207031 4.039062 L 45.960938 22.792969 C 47.179688 24.011719 47.179688 25.988281 45.960938 27.207031 L 27.207031 45.960938 C 25.988281 47.179688 24.011719 47.179688 22.792969 45.960938 Z M 4.039062 27.207031 "/>
<path style=" stroke:none;fill-rule:nonzero;fill:rgb(100%,100%,100%);fill-opacity:1;" d="M 18.984375 7.910156 L 17.082031 9.808594 L 21.988281 14.710938 C 21.789062 15.136719 21.679688 15.613281 21.679688 16.113281 C 21.679688 17.535156 22.570312 18.746094 23.828125 19.21875 L 23.828125 31.21875 C 22.570312 31.691406 21.679688 32.90625 21.679688 34.324219 C 21.679688 36.160156 23.164062 37.644531 25 37.644531 C 26.832031 37.644531 28.320312 36.160156 28.320312 34.324219 C 28.320312 33.039062 27.585938 31.921875 26.511719 31.371094 L 26.511719 19.238281 L 31.203125 23.925781 C 31.011719 24.34375 30.90625 24.804688 30.90625 25.292969 C 30.90625 27.125 32.394531 28.613281 34.226562 28.613281 C 36.0625 28.613281 37.546875 27.125 37.546875 25.292969 C 37.546875 23.460938 36.0625 21.972656 34.226562 21.972656 C 33.871094 21.972656 33.527344 22.027344 33.207031 22.132812 L 28.171875 17.097656 C 28.269531 16.785156 28.320312 16.457031 28.320312 16.113281 C 28.320312 14.28125 26.832031 12.792969 25 12.792969 C 24.65625 12.792969 24.328125 12.84375 24.015625 12.941406 Z M 18.984375 7.910156 "/>
</g>
</svg>
