<?xml version="1.0" encoding="UTF-8"?>
<svg xmlns="http://www.w3.org/2000/svg" xmlns:xlink="http://www.w3.org/1999/xlink" width="50px" height="50px" viewBox="0 0 50 50" version="1.1">
<g id="surface1">
<path style=" stroke:none;fill-rule:nonzero;fill:rgb(32.54902%,50.980392%,63.137255%);fill-opacity:1;" d="M 18.433594 38.652344 C 18.433594 38.652344 16.523438 39.761719 19.789062 40.136719 C 23.746094 40.585938 25.765625 40.523438 30.125 39.699219 C 30.125 39.699219 31.269531 40.417969 32.871094 41.039062 C 23.101562 45.226562 10.757812 40.796875 18.433594 38.652344 "/>
<path style=" stroke:none;fill-rule:nonzero;fill:rgb(32.54902%,50.980392%,63.137255%);fill-opacity:1;" d="M 17.238281 33.1875 C 17.238281 33.1875 15.097656 34.769531 18.367188 35.109375 C 22.589844 35.546875 25.929688 35.582031 31.703125 34.46875 C 31.703125 34.46875 32.5 35.277344 33.753906 35.722656 C 21.941406 39.175781 8.785156 35.992188 17.238281 33.1875 "/>
<path style=" stroke:none;fill-rule:nonzero;fill:rgb(90.588235%,43.529412%,0%);fill-opacity:1;" d="M 27.304688 23.917969 C 29.710938 26.691406 26.671875 29.183594 26.671875 29.183594 C 26.671875 29.183594 32.785156 26.027344 29.976562 22.078125 C 27.355469 18.390625 25.34375 16.5625 36.230469 10.246094 C 36.230469 10.246094 19.144531 14.515625 27.304688 23.917969 "/>
<path style=" stroke:none;fill-rule:nonzero;fill:rgb(32.54902%,50.980392%,63.137255%);fill-opacity:1;" d="M 40.226562 42.695312 C 40.226562 42.695312 41.636719 43.855469 38.671875 44.757812 C 33.03125 46.464844 15.199219 46.980469 10.246094 44.824219 C 8.464844 44.050781 11.804688 42.976562 12.855469 42.75 C 13.949219 42.511719 14.574219 42.554688 14.574219 42.554688 C 12.59375 41.160156 1.773438 45.296875 9.078125 46.480469 C 29 49.710938 45.394531 45.023438 40.226562 42.695312 "/>
<path style=" stroke:none;fill-rule:nonzero;fill:rgb(32.54902%,50.980392%,63.137255%);fill-opacity:1;" d="M 19.351562 27.527344 C 19.351562 27.527344 10.277344 29.679688 16.136719 30.464844 C 18.609375 30.792969 23.542969 30.71875 28.136719 30.335938 C 31.890625 30.019531 35.660156 29.34375 35.660156 29.34375 C 35.660156 29.34375 34.335938 29.910156 33.378906 30.566406 C 24.167969 32.988281 6.371094 31.859375 11.496094 29.382812 C 15.828125 27.289062 19.351562 27.527344 19.351562 27.527344 "/>
<path style=" stroke:none;fill-rule:nonzero;fill:rgb(32.54902%,50.980392%,63.137255%);fill-opacity:1;" d="M 35.621094 36.621094 C 44.984375 31.753906 40.65625 27.078125 37.636719 27.710938 C 36.894531 27.863281 36.5625 27.996094 36.5625 27.996094 C 36.5625 27.996094 36.839844 27.566406 37.363281 27.378906 C 43.34375 25.277344 47.941406 33.578125 35.433594 36.867188 C 35.433594 36.867188 35.578125 36.738281 35.621094 36.621094 "/>
<path style=" stroke:none;fill-rule:nonzero;fill:rgb(90.588235%,43.529412%,0%);fill-opacity:1;" d="M 29.976562 0.0546875 C 29.976562 0.0546875 35.164062 5.242188 25.058594 13.21875 C 16.957031 19.617188 23.210938 23.265625 25.054688 27.433594 C 20.324219 23.167969 16.855469 19.410156 19.183594 15.914062 C 22.601562 10.78125 32.070312 8.292969 29.976562 0.0546875 "/>
<path style=" stroke:none;fill-rule:nonzero;fill:rgb(32.54902%,50.980392%,63.137255%);fill-opacity:1;" d="M 20.269531 49.808594 C 29.257812 50.382812 43.0625 49.488281 43.386719 45.234375 C 43.386719 45.234375 42.757812 46.847656 35.960938 48.128906 C 28.289062 49.570312 18.824219 49.402344 13.214844 48.476562 C 13.214844 48.476562 14.363281 49.429688 20.269531 49.808594 "/>
</g>
</svg>
