<?xml version="1.0" encoding="UTF-8"?>
<svg xmlns="http://www.w3.org/2000/svg" xmlns:xlink="http://www.w3.org/1999/xlink" width="50px" height="50px" viewBox="0 0 50 50" version="1.1">
<g id="surface1">
<path style=" stroke:none;fill-rule:nonzero;fill:rgb(90.588235%,43.529412%,0%);fill-opacity:1;" d="M 25.078125 13.1875 C 35.371094 5.195312 30.089844 0 30.089844 0 C 30.875 8.261719 21.582031 10.210938 19.09375 15.890625 C 17.390625 19.761719 20.257812 23.15625 25.074219 27.429688 C 24.648438 26.484375 23.992188 25.5625 23.328125 24.632812 C 21.058594 21.457031 18.695312 18.144531 25.078125 13.1875 Z M 25.078125 13.1875 "/>
<path style=" stroke:none;fill-rule:nonzero;fill:rgb(90.588235%,43.529412%,0%);fill-opacity:1;" d="M 26.722656 29.183594 C 26.722656 29.183594 29.816406 26.683594 27.367188 23.90625 C 19.050781 14.488281 36.457031 10.210938 36.457031 10.210938 C 25.832031 15.332031 27.417969 18.371094 30.089844 22.0625 C 32.949219 26.023438 26.722656 29.183594 26.722656 29.183594 Z M 26.722656 29.183594 "/>
<path style=" stroke:none;fill-rule:nonzero;fill:rgb(32.54902%,50.980392%,63.137255%);fill-opacity:1;" d="M 35.839844 36.632812 C 45.378906 31.757812 40.96875 27.074219 37.890625 27.707031 C 37.132812 27.859375 36.796875 27.992188 36.796875 27.992188 C 36.796875 27.992188 37.078125 27.5625 37.613281 27.375 C 43.703125 25.269531 48.386719 33.585938 35.648438 36.878906 C 35.648438 36.878906 35.796875 36.75 35.839844 36.632812 Z M 35.839844 36.632812 "/>
<path style=" stroke:none;fill-rule:nonzero;fill:rgb(32.54902%,50.980392%,63.137255%);fill-opacity:1;" d="M 15.988281 30.464844 C 10.019531 29.679688 19.261719 27.523438 19.261719 27.523438 C 19.261719 27.523438 15.671875 27.285156 11.257812 29.382812 C 6.039062 31.863281 24.167969 32.992188 33.554688 30.566406 C 34.527344 29.910156 35.878906 29.34375 35.878906 29.34375 C 35.878906 29.34375 32.035156 30.019531 28.210938 30.335938 C 23.53125 30.71875 18.507812 30.796875 15.988281 30.464844 Z M 15.988281 30.464844 "/>
<path style=" stroke:none;fill-rule:nonzero;fill:rgb(32.54902%,50.980392%,63.137255%);fill-opacity:1;" d="M 18.261719 35.117188 C 14.929688 34.78125 17.109375 33.195312 17.109375 33.195312 C 8.5 36.003906 21.902344 39.191406 33.9375 35.730469 C 32.65625 35.289062 31.84375 34.476562 31.84375 34.476562 C 25.964844 35.589844 22.5625 35.554688 18.261719 35.117188 Z M 18.261719 35.117188 "/>
<path style=" stroke:none;fill-rule:nonzero;fill:rgb(32.54902%,50.980392%,63.137255%);fill-opacity:1;" d="M 19.710938 40.15625 C 16.382812 39.777344 18.328125 38.667969 18.328125 38.667969 C 10.507812 40.816406 23.082031 45.253906 33.035156 41.058594 C 31.40625 40.433594 30.238281 39.714844 30.238281 39.714844 C 25.796875 40.542969 23.738281 40.605469 19.710938 40.15625 Z M 19.710938 40.15625 "/>
<path style=" stroke:none;fill-rule:nonzero;fill:rgb(32.54902%,50.980392%,63.137255%);fill-opacity:1;" d="M 40.527344 42.71875 C 40.527344 42.71875 41.96875 43.882812 38.945312 44.78125 C 33.199219 46.496094 15.03125 47.011719 9.984375 44.851562 C 8.171875 44.074219 11.574219 43 12.644531 42.773438 C 13.761719 42.535156 14.398438 42.578125 14.398438 42.578125 C 12.378906 41.179688 1.355469 45.324219 8.796875 46.507812 C 29.09375 49.746094 45.792969 45.050781 40.527344 42.71875 Z M 40.527344 42.71875 "/>
<path style=" stroke:none;fill-rule:nonzero;fill:rgb(32.54902%,50.980392%,63.137255%);fill-opacity:1;" d="M 43.75 45.261719 C 43.417969 49.523438 29.355469 50.417969 20.199219 49.84375 C 14.226562 49.464844 13.027344 48.523438 13.011719 48.511719 C 18.726562 49.4375 28.367188 49.605469 36.183594 48.160156 C 43.109375 46.878906 43.75 45.261719 43.75 45.261719 Z M 43.75 45.261719 "/>
</g>
</svg>
