<?xml version="1.0" encoding="UTF-8"?>
<svg xmlns="http://www.w3.org/2000/svg" xmlns:xlink="http://www.w3.org/1999/xlink" width="50px" height="50px" viewBox="0 0 50 50" version="1.1">
<g id="surface1">
<path style=" stroke:none;fill-rule:nonzero;fill:rgb(100%,79.215686%,15.686275%);fill-opacity:1;" d="M 3.125 3.125 L 46.875 3.125 L 46.875 46.875 L 3.125 46.875 Z M 3.125 3.125 "/>
<path style=" stroke:none;fill-rule:nonzero;fill:rgb(24.313725%,24.313725%,24.313725%);fill-opacity:1;" d="M 29.6875 39.511719 L 32.910156 37.378906 C 33.160156 38.175781 34.757812 40.058594 36.777344 40.058594 C 38.796875 40.058594 39.734375 38.953125 39.734375 38.222656 C 39.734375 36.230469 37.671875 35.527344 36.683594 35.191406 C 36.523438 35.136719 36.390625 35.089844 36.296875 35.050781 C 36.25 35.03125 36.179688 35.003906 36.089844 34.96875 C 34.988281 34.546875 30.925781 32.996094 30.925781 28.496094 C 30.925781 23.539062 35.710938 22.96875 36.789062 22.96875 C 37.5 22.96875 40.902344 23.054688 42.597656 26.242188 L 39.472656 28.421875 C 38.785156 27.035156 37.648438 26.574219 36.945312 26.574219 C 35.214844 26.574219 34.855469 27.84375 34.855469 28.421875 C 34.855469 30.042969 36.734375 30.769531 38.324219 31.382812 C 38.738281 31.542969 39.132812 31.695312 39.472656 31.855469 C 41.203125 32.671875 43.75 34.011719 43.75 38.222656 C 43.75 40.332031 41.980469 43.75 37.523438 43.75 C 31.539062 43.75 29.953125 40.15625 29.6875 39.511719 Z M 29.6875 39.511719 "/>
<path style=" stroke:none;fill-rule:nonzero;fill:rgb(24.313725%,24.313725%,24.313725%);fill-opacity:1;" d="M 14.0625 39.933594 L 17.417969 37.804688 C 17.683594 38.597656 18.707031 40.058594 20.1875 40.058594 C 21.671875 40.058594 22.429688 38.535156 22.429688 37.804688 L 22.429688 23.4375 L 26.558594 23.4375 L 26.558594 37.804688 C 26.625 39.785156 25.527344 43.75 20.675781 43.75 C 16.21875 43.75 14.363281 41.101562 14.0625 39.933594 Z M 14.0625 39.933594 "/>
</g>
</svg>
