<?xml version="1.0" encoding="UTF-8"?>
<svg xmlns="http://www.w3.org/2000/svg" xmlns:xlink="http://www.w3.org/1999/xlink" width="50px" height="50px" viewBox="0 0 50 50" version="1.1">
<g id="surface1">
<path style=" stroke:none;fill-rule:nonzero;fill:rgb(0%,0%,0%);fill-opacity:1;" d="M 9.699219 4.792969 L 9.699219 6.011719 L 11.847656 6.011719 L 11.847656 20.488281 L 9.699219 20.488281 L 9.699219 21.679688 L 23.242188 21.679688 L 23.242188 17.464844 L 21.847656 17.464844 L 21.847656 20.3125 L 14.144531 20.3125 L 14.144531 6.011719 L 16.296875 6.011719 L 16.296875 4.792969 Z M 31.929688 6.070312 L 25.886719 21.765625 L 24.402344 21.765625 L 24.402344 22.984375 L 29.171875 22.984375 L 29.171875 21.765625 L 27.308594 21.765625 L 28.734375 18.074219 L 35.824219 18.074219 L 37.25 21.765625 L 35.359375 21.765625 L 35.359375 22.984375 L 41.523438 22.984375 L 41.523438 21.765625 L 39.867188 21.765625 L 33.820312 6.070312 Z M 32.308594 8.804688 L 35.390625 16.855469 L 29.199219 16.855469 Z M 4.875 23.101562 L 4.875 27.085938 L 6.269531 27.085938 L 6.269531 24.46875 L 11.238281 24.46875 L 11.238281 38.824219 L 9.085938 38.824219 L 9.085938 40.015625 L 15.683594 40.015625 L 15.683594 38.824219 L 13.535156 38.824219 L 13.535156 24.46875 L 18.503906 24.46875 L 18.503906 27.085938 L 19.871094 27.085938 L 19.871094 23.101562 Z M 28.9375 24.292969 L 28.9375 25.484375 L 30.738281 25.484375 L 35.679688 32.898438 L 30.828125 39.988281 L 28.878906 39.988281 L 28.878906 41.179688 L 34.460938 41.179688 L 34.460938 39.988281 L 32.28125 39.988281 L 36.40625 33.941406 L 40.445312 39.988281 L 38.441406 39.988281 L 38.441406 41.179688 L 45.125 41.179688 L 45.125 39.988281 L 43.324219 39.988281 L 37.976562 31.996094 L 42.453125 25.484375 L 44.371094 25.484375 L 44.371094 24.292969 L 38.820312 24.292969 L 38.820312 25.484375 L 41 25.484375 L 37.277344 30.949219 L 33.644531 25.484375 L 35.652344 25.484375 L 35.652344 24.292969 Z M 16.441406 28.828125 L 16.441406 30.019531 L 18.589844 30.019531 L 18.589844 44.523438 L 16.441406 44.523438 L 16.441406 45.714844 L 30.246094 45.714844 L 30.246094 41.964844 L 28.851562 41.964844 L 28.851562 44.320312 L 20.917969 44.320312 L 20.917969 37.257812 L 26.4375 37.257812 L 26.4375 39.378906 L 27.832031 39.378906 L 27.832031 33.738281 L 26.4375 33.738281 L 26.4375 35.859375 L 20.917969 35.859375 L 20.917969 30.195312 L 28.675781 30.195312 L 28.675781 32.578125 L 30.070312 32.578125 L 30.070312 28.828125 Z M 16.441406 28.828125 "/>
</g>
</svg>
