<?xml version="1.0" encoding="UTF-8"?>
<svg xmlns="http://www.w3.org/2000/svg" xmlns:xlink="http://www.w3.org/1999/xlink" width="50px" height="50px" viewBox="0 0 50 50" version="1.1">
<defs>
<linearGradient id="linear0" gradientUnits="userSpaceOnUse" x1="12.4809" y1="2" x2="12.4809" y2="22.7407" gradientTransform="matrix(1.5625,0,0,1.5625,0,0)">
<stop offset="0" style="stop-color:rgb(19.607843%,49.411765%,74.117647%);stop-opacity:1;"/>
<stop offset="1" style="stop-color:rgb(8.235294%,39.607843%,65.490196%);stop-opacity:1;"/>
</linearGradient>
<linearGradient id="linear1" gradientUnits="userSpaceOnUse" x1="19.519" y1="9.25928" x2="19.519" y2="30" gradientTransform="matrix(1.5625,0,0,1.5625,0,0)">
<stop offset="0" style="stop-color:rgb(100%,85.490196%,29.411765%);stop-opacity:1;"/>
<stop offset="1" style="stop-color:rgb(97.647059%,77.647059%,0%);stop-opacity:1;"/>
</linearGradient>
</defs>
<g id="surface1">
<path style=" stroke:none;fill-rule:evenodd;fill:url(#linear0);" d="M 20.339844 3.125 C 16.90625 3.125 14.121094 5.820312 14.121094 9.144531 L 14.121094 13.308594 L 24.878906 13.308594 L 24.878906 14.46875 L 9.339844 14.46875 C 5.90625 14.46875 3.125 17.164062 3.125 20.484375 L 3.125 29.515625 C 3.125 32.835938 5.90625 35.53125 9.339844 35.53125 L 12.925781 35.53125 L 12.925781 30.441406 C 12.925781 27.117188 15.710938 24.421875 19.144531 24.421875 L 30.617188 24.421875 C 33.523438 24.421875 35.878906 22.140625 35.878906 19.328125 L 35.878906 9.144531 C 35.878906 5.820312 33.09375 3.125 29.660156 3.125 Z M 18.902344 10.53125 C 20.09375 10.53125 21.054688 9.601562 21.054688 8.449219 C 21.054688 7.296875 20.09375 6.367188 18.902344 6.367188 C 17.714844 6.367188 16.753906 7.296875 16.753906 8.449219 C 16.753906 9.601562 17.714844 10.53125 18.902344 10.53125 Z M 18.902344 10.53125 "/>
<path style=" stroke:none;fill-rule:evenodd;fill:url(#linear1);" d="M 29.660156 46.875 C 33.09375 46.875 35.878906 44.179688 35.878906 40.855469 L 35.878906 36.691406 L 25.121094 36.691406 L 25.121094 35.53125 L 40.660156 35.53125 C 44.09375 35.53125 46.875 32.835938 46.875 29.515625 L 46.875 20.484375 C 46.875 17.164062 44.09375 14.46875 40.660156 14.46875 L 37.074219 14.46875 L 37.074219 19.558594 C 37.074219 22.882812 34.289062 25.578125 30.855469 25.578125 L 19.382812 25.578125 C 16.476562 25.578125 14.121094 27.859375 14.121094 30.671875 L 14.121094 40.855469 C 14.121094 44.179688 16.90625 46.875 20.335938 46.875 Z M 31.097656 39.46875 C 29.90625 39.46875 28.945312 40.398438 28.945312 41.550781 C 28.945312 42.703125 29.90625 43.632812 31.097656 43.632812 C 32.285156 43.632812 33.246094 42.703125 33.246094 41.550781 C 33.246094 40.398438 32.285156 39.46875 31.097656 39.46875 Z M 31.097656 39.46875 "/>
</g>
</svg>
